<svg width="40" height="32" viewBox="0 0 40 32" fill="none" xmlns="http://www.w3.org/2000/svg">
<rect width="18.9351" height="4.55237" transform="matrix(0.90694 -0.421259 0.342901 0.939372 12.8311 23.0742)" fill="black"/>
<path fill-rule="evenodd" clip-rule="evenodd" d="M11.75 20.1133L12.8645 23.1665L12.9069 23.1468C13.9122 24.5211 18.0204 24.0509 22.471 21.9837C26.9216 19.9165 30.1321 16.9872 29.9881 15.2129L30.0305 15.1932L28.9169 12.1425L28.9233 12.1366L28.916 12.14L28.9169 12.1425L21.4456 19.035L11.8298 20.0762L11.75 20.1133Z" fill="black"/>
<path d="M17.7374 8.48383L35.8138 5.8585L3.26329 20.9777L17.7374 8.48383Z" fill="black"/>
<path d="M21.3391 18.3522L3.33702 20.943L35.7389 5.8929L21.3391 18.3522Z" fill="black"/>
<rect width="1.33659" height="3.87496" transform="matrix(0.90694 -0.421259 0.342901 0.939372 5.33984 20.0127)" fill="black"/>
<ellipse rx="1.2809" ry="0.990267" transform="matrix(0.90694 -0.421259 0.342901 0.939372 7.44657 24.002)" fill="black"/>
<path d="M7.15698 23.0482L9.62299 26.16L7.34842 27.2165L7.15698 23.0482Z" fill="black"/>
<ellipse rx="9.46753" ry="3.50182" transform="matrix(0.90694 -0.421259 0.342901 0.939372 22.9787 23.3618)" fill="black"/>
</svg>
