<svg width="147" height="108" viewBox="0 0 147 108" fill="none" xmlns="http://www.w3.org/2000/svg">
<path d="M76.7344 69.7812C76.7969 66.0625 77.2188 63.125 78 60.9688C78.7812 58.8125 80.375 56.4219 82.7812 53.7969L88.9219 47.4688C91.5469 44.5 92.8594 41.3125 92.8594 37.9062C92.8594 34.625 92 32.0625 90.2812 30.2188C88.5625 28.3438 86.0625 27.4062 82.7812 27.4062C79.5938 27.4062 77.0312 28.25 75.0938 29.9375C73.1562 31.625 72.1875 33.8906 72.1875 36.7344H63.5156C63.5781 31.6719 65.375 27.5938 68.9062 24.5C72.4688 21.375 77.0938 19.8125 82.7812 19.8125C88.6875 19.8125 93.2812 21.4062 96.5625 24.5938C99.875 27.75 101.531 32.0938 101.531 37.625C101.531 43.0938 99 48.4844 93.9375 53.7969L88.8281 58.8594C86.5469 61.3906 85.4062 65.0312 85.4062 69.7812H76.7344ZM76.3594 84.6406C76.3594 83.2344 76.7812 82.0625 77.625 81.125C78.5 80.1562 79.7812 79.6719 81.4688 79.6719C83.1562 79.6719 84.4375 80.1562 85.3125 81.125C86.1875 82.0625 86.625 83.2344 86.625 84.6406C86.625 86.0469 86.1875 87.2188 85.3125 88.1562C84.4375 89.0625 83.1562 89.5156 81.4688 89.5156C79.7812 89.5156 78.5 89.0625 77.625 88.1562C76.7812 87.2188 76.3594 86.0469 76.3594 84.6406Z" fill="#C4C4C4"/>
<path d="M41.2038 90.7203C39.9107 87.2358 39.2417 84.3626 39.1967 82.1007C39.1517 79.8387 39.7902 77.0951 41.112 73.8697L44.62 65.984C46.0237 62.3674 46.1063 58.9726 44.8678 55.7995C43.6747 52.7428 41.93 50.6343 39.6337 49.474C37.326 48.2846 34.6201 48.2217 31.5161 49.2855C28.5007 50.3188 26.3834 51.9356 25.1641 54.1357C23.9449 56.3358 23.8523 58.7604 24.8863 61.4095L16.6828 64.2208C14.9011 59.4846 15.1181 55.1031 17.3337 51.0763C19.5675 47.0103 23.3746 44.0553 28.7549 42.2115C34.3422 40.2967 39.2673 40.2921 43.5304 42.1977C47.8116 44.064 50.9578 47.5735 52.969 52.7262C54.9575 57.8206 54.5231 63.6628 51.6657 70.2529L48.673 76.6253C47.4354 79.7229 47.6801 83.4841 49.4073 87.9089L41.2038 90.7203ZM46.252 104.684C45.7407 103.374 45.7137 102.146 46.171 100.999C46.6465 99.8127 47.6824 98.9461 49.2788 98.3991C50.8751 97.852 52.2633 97.8878 53.4433 98.5066C54.6119 99.0963 55.4519 100.046 55.9632 101.356C56.4746 102.666 56.4868 103.9 55.9999 105.057C55.5017 106.184 54.4544 107.022 52.8581 107.569C51.2617 108.116 49.8849 108.109 48.7276 107.549C47.5886 106.949 46.7634 105.994 46.252 104.684Z" fill="#C4C4C4"/>
<path d="M110.539 86.8232C111.803 83.3228 113.158 80.6649 114.604 78.8497C116.051 77.0344 118.351 75.2313 121.506 73.4402L129.436 69.2202C132.911 67.1668 135.2 64.5288 136.303 61.306C137.366 58.2016 137.372 55.5298 136.323 53.2908C135.284 51.0222 133.194 49.4158 130.051 48.4715C126.999 47.5542 124.271 47.615 121.869 48.654C119.467 49.693 117.806 51.5578 116.885 54.2483L108.58 51.7527C110.279 46.981 113.321 43.6397 117.704 41.7288C122.128 39.7974 127.063 39.6501 132.51 41.2869C138.167 42.9866 142.05 45.8165 144.16 49.7765C146.311 53.716 146.49 58.3023 144.699 63.5355C142.928 68.7096 138.759 73.0814 132.19 76.6507L125.657 79.9701C122.653 81.7085 120.382 84.8247 118.844 89.3188L110.539 86.8232ZM105.368 100.774C105.823 99.4435 106.607 98.4562 107.718 97.812C108.87 97.1473 110.254 97.0577 111.87 97.5433C113.486 98.029 114.556 98.856 115.081 100.024C115.615 101.163 115.655 102.398 115.199 103.728C114.744 105.059 113.945 106.042 112.804 106.677C111.672 107.282 110.299 107.342 108.682 106.857C107.066 106.371 105.986 105.574 105.442 104.464C104.937 103.335 104.912 102.104 105.368 100.774Z" fill="#C4C4C4"/>
</svg>
